<?xml version="1.0" encoding="utf-8"?>
<!-- Generator: Adobe Illustrator 27.2.0, SVG Export Plug-In . SVG Version: 6.00 Build 0)  -->
<svg version="1.1" id="Camada_1" xmlns="http://www.w3.org/2000/svg" xmlns:xlink="http://www.w3.org/1999/xlink" x="0px" y="0px"
	 viewBox="0 0 316 150" style="enable-background:new 0 0 316 150;" xml:space="preserve">
<style type="text/css">
	.st0{fill:#316094;}
	.st1{fill:#FFFFFF;}
</style>
<path class="st0" d="M104.7,115.7c-2-5.3-4.4-11.8-6.4-18.5c-3.8-12.6-7-24.8-6.9-24.9c2.5-1.6,24.4-16.6,40.3-25.6
	c0.2-0.1,4.9-2.8,5.4-6c0.1-0.9,0-1.8-0.3-2.6c-0.8-2.4-2.8-4.5-8.4-4.9c-4.4-0.3-12.2-0.8-20.7-0.3c-8.3,0.3-17.3,1.2-23.9,2.3
	c0,0-2.7-16.3-3.6-23.1c-0.1-0.4-0.5-3-1.2-4.1C78.1,7,76.9,6,75.1,5.6c-2-0.4-3.4,0.2-4.4,0.9c-1,0.7-2.4,2.8-2.8,3.3
	c-4.2,6-16.2,23.7-22.2,33.8c0,0-18.6,5.7-30,10.5c-3.4,1.4-3.7,3.1-3.8,4c-0.1,0.7,0,2.4,2.6,4.6C17.8,65.4,28.2,74,28.2,74
	c-3.7,5.8-17.8,34.6-19.2,42.6c-0.4,2.3-0.4,4.7,1.3,6.9c1,1.4,2.9,2.3,4.9,2.4c2.4,0,5.7-2.5,7.1-3.5c11.2-8,33.2-24.9,33.2-24.9
	c8.3,7.4,25.7,23.4,35,32c1.1,1,4.5,4.2,7.8,4.2c6.3,0.2,8.4-5.2,8.7-7.1C107.5,122.3,105.3,117.5,104.7,115.7L104.7,115.7z
	 M18.8,59.3c-0.3-0.2-1.1-0.8-1-1.7c0-0.4,0.2-0.8,0.8-1.1c0.2-0.1,0.9-0.4,1-0.5c2-0.7,10.7-3.9,22.5-6.7C39,54.7,37,58,35.5,60.5
	c-3.3,5.8-3.3,6-4.6,8.4C30.9,68.9,21.2,61.2,18.8,59.3z M24.2,105.7c-0.3,0.2-1.5,1-1.8,1.1c-2.5,1.2-3-0.3-3.2-0.9
	c-0.3-1.2,0.7-3.4,0.9-3.6c2.4-5.1,11.8-25.2,11.8-25.2s11.8,10,14.7,12.6C46.6,89.7,29.6,101.9,24.2,105.7L24.2,105.7z M84.9,98.3
	c2,6.7,4.2,13.7,5.3,17.1c0.3,0.9,0.3,1.8,0,2.3c-0.3,0.5-0.9,0.7-1.7,0.3c-0.3-0.2-1.3-0.9-1.4-1c-4.3-3.8-26.5-23.2-26.5-23.2
	l19.2-13.6C79.9,80.2,82.4,89.7,84.9,98.3L84.9,98.3z M51.6,86c0,0-16.1-13.4-16.9-14.1c0,0,10.2-19.1,13.3-23.9
	c2-0.5,16.9-3.3,23.9-4.1c0,0,2.1,11.6,5.2,24.9C77.1,68.7,56.4,82.5,51.6,86L51.6,86z M96.3,41.6c6.9-0.3,14.2-0.4,14.8-0.4
	c1.7,0,3.2,0.2,3.4,0.9c0.4,1-0.4,2.2-1.7,3c-0.3,0.2-4.4,2.9-8.8,5.9c-6.8,4.6-15.3,10.2-15.3,10.2c0.1,0.2-3.2-14.8-3.9-18.8
	C84.8,42.4,90.4,41.9,96.3,41.6L96.3,41.6z M65,22c0.1-0.2,1.3-1.6,2.1-1.6s1.1,1,1.2,1.6c0.2,1.3,0.5,3.1,0.9,6.1
	c0.7,4.4,1.6,9.4,1.6,9.4c-4.6,0.9-15.6,3.5-19.2,4.5C55.4,35.6,62.6,25,65,22z"/>
<g>
	<path class="st1" d="M147.9,37.8h24.9l-2.3,7.5h-13.7v9.8h13.5v7.5h-13.5v17.9h-8.9C147.9,80.5,147.9,37.8,147.9,37.8z"/>
	<path class="st1" d="M180.3,70.6c2.7,1.8,6,3.2,9.7,3.2c3.3,0,6.6-1.2,6.6-4.4c0-7.7-18.3-6.7-18.3-19.8c0-6.4,5.1-12.2,14.3-12.2
		c4.5,0,8.4,1,10.8,2.3v8c-3.7-1.8-7.1-2.8-10.6-2.8c-2.7,0-5.1,1-5.1,4c0,7.2,18.3,6.2,18.3,19.8c0,7.8-6.8,12.6-15.7,12.6
		c-5,0-10-1.4-13.4-3.9L180.3,70.6L180.3,70.6z"/>
	<path class="st1" d="M250.5,77.6c-4.2,2.1-10,3.5-16,3.5c-14.4,0-22.7-9-22.7-21.2c0-12.9,9.4-22.6,23.9-22.6
		c5.1,0,9.1,0.9,12.7,2.1v8.2c-3.5-1.7-7.3-2.8-12-2.8c-10,0-15.1,6-15.1,14.6s5,14.3,13.8,14.3c2.7,0,5.1-0.4,6.6-1.1V59.6h8.9
		V77.6L250.5,77.6z"/>
</g>
<g>
	<path class="st1" d="M158.3,112.9c-6.4,0-10.4-4.6-10.4-10.7s4.4-11,10.9-11c2.4,0,4.4,0.6,5.4,1.2l0,2.8c-1.6-1-3.2-1.6-5.4-1.6
		c-4.8,0-7.8,3.7-7.8,8.3s2.9,8.3,7.6,8.3c1.8,0,3.6-0.6,5.1-1.3l0.8,2.2C162.4,112.4,160.3,112.9,158.3,112.9L158.3,112.9z"/>
	<path class="st1" d="M168.7,105.6c0,2.7,1.7,4.9,4.8,4.9c1.3,0,2.7-0.4,3.7-1.1l0.8,1.9c-1.3,1-3.3,1.6-5.1,1.6
		c-5,0-7.2-3.9-7.2-8.2s2.5-7.8,6.4-7.8s6.3,3.1,6.3,7.9v0.7H168.7z M172.2,99.3c-2.1,0-3.4,1.9-3.4,4.1h6.8
		C175.5,101.4,174.4,99.3,172.2,99.3z"/>
	<path class="st1" d="M191.1,112.6v-9.2c0-1.8-0.3-3.8-2.5-3.8c-1.7,0-3.2,1.1-4.4,2.1v10.9h-2.8V97.4h2.4l0.4,1.7
		c1.7-1.3,3.3-2.1,5.4-2.1s4.5,1.5,4.5,5.4v10.2L191.1,112.6L191.1,112.6z"/>
	<path class="st1" d="M201.8,112.9c-2.4,0-3.4-1.3-3.4-3.4v-9.9h-2.5v-2.3h2.5v-3.4l2.9-0.9v4.3h4.7l-0.9,2.3h-3.8v9
		c0,1.3,0.5,1.8,1.5,1.8s2-0.6,2.6-1l0.8,1.9C204.9,112.3,203.2,112.9,201.8,112.9L201.8,112.9z"/>
	<path class="st1" d="M215.8,100.1c-0.4-0.2-1-0.3-1.6-0.3c-0.9,0-2.2,0.7-3.2,1.7v11.2h-2.9V97.4h2.4l0.4,1.7
		c1.9-1.7,3.1-2.1,4.3-2.1c0.7,0,1.4,0.2,1.7,0.5L215.8,100.1L215.8,100.1z"/>
	<path class="st1" d="M229.1,99c1.4,1.4,2.1,3.5,2.1,5.9s-0.8,4.5-2.2,6c-1.2,1.3-3,2-5.1,2s-3.7-0.7-4.9-1.9
		c-1.4-1.4-2.2-3.6-2.2-6.1s0.8-4.5,2.2-6c1.2-1.3,3-2,5-2S227.8,97.7,229.1,99L229.1,99z M219.7,104.9c0,3.4,1.6,5.6,4.3,5.6
		s4.2-2.3,4.2-5.6s-1.5-5.6-4.3-5.6S219.7,101.6,219.7,104.9z"/>
</g>
<g>
	<path class="st1" d="M164,142.3c-1.3,1.4-3.4,2.2-6.3,2.2c-2.8,0-4.7-0.7-5.9-1.9c-1.6-1.6-2.1-4-2.1-6.1v-13.5h2.9v13.5
		c0,1.5,0.4,3.1,1.4,4.2c0.8,0.8,2,1.4,3.8,1.4c2,0,3.3-0.5,4.1-1.4c0.9-1,1.3-2.4,1.3-4v-13.7h2.9v13.9
		C166,138.9,165.4,140.9,164,142.3L164,142.3z"/>
	<path class="st1" d="M179.3,144.2v-9.2c0-1.8-0.3-3.8-2.5-3.8c-1.7,0-3.3,1.1-4.4,2.1v10.9h-2.8v-15.2h2.4l0.4,1.7
		c1.7-1.3,3.3-2.1,5.4-2.1s4.5,1.5,4.5,5.4v10.2L179.3,144.2L179.3,144.2z"/>
	<path class="st1" d="M188.9,124.1c0,1-0.9,1.9-1.9,1.9s-1.9-0.8-1.9-1.9c0-1,0.8-1.9,1.9-1.9S188.9,123.1,188.9,124.1z
		 M185.6,144.2v-15.2h2.8v15.2H185.6z"/>
	<path class="st1" d="M198.7,144.3h-2.1l-6-15.3h2.9l4.2,11.6h0.1l4.6-11.6h2.8L198.7,144.3L198.7,144.3z"/>
	<path class="st1" d="M208.6,137.1c0,2.7,1.7,4.9,4.8,4.9c1.3,0,2.7-0.5,3.7-1.1l0.8,1.9c-1.3,1-3.3,1.6-5.1,1.6
		c-5,0-7.3-3.9-7.3-8.2s2.6-7.8,6.4-7.8s6.3,3.1,6.3,7.9v0.7L208.6,137.1L208.6,137.1z M212,130.9c-2.1,0-3.4,1.9-3.4,4.1h6.8
		C215.3,132.9,214.2,130.9,212,130.9z"/>
	<path class="st1" d="M228.7,131.7c-0.4-0.2-1-0.4-1.6-0.4c-0.9,0-2.2,0.7-3.2,1.7v11.1h-2.9v-15.2h2.4l0.4,1.7
		c1.9-1.7,3.1-2.1,4.3-2.1c0.7,0,1.4,0.2,1.7,0.5L228.7,131.7L228.7,131.7z"/>
	<path class="st1" d="M234.8,144.5c-2.3,0-3.8-0.6-4.9-1.2l1-2.2c0.8,0.5,2.2,1.2,3.8,1.2c1.8,0,3-0.8,3-2.1c0-3.4-7-2.2-7-7.5
		c0-2.3,1.8-4.2,5.3-4.2c1.7,0,3,0.4,4,0.8v2.4c-1.1-0.5-2.3-0.9-3.9-0.9c-1.5,0-2.6,0.5-2.6,1.7c0,3.1,7.1,2.2,7.1,7.3
		C240.7,143.2,238,144.5,234.8,144.5L234.8,144.5z"/>
	<path class="st1" d="M246.7,124.1c0,1-0.9,1.9-1.9,1.9s-1.9-0.8-1.9-1.9c0-1,0.8-1.9,1.9-1.9S246.7,123.1,246.7,124.1z
		 M243.4,144.2v-15.2h2.8v15.2H243.4z"/>
	<path class="st1" d="M254.5,144.5c-2.4,0-3.4-1.4-3.4-3.4v-9.9h-2.5v-2.3h2.5v-3.4l2.9-0.9v4.3h4.7l-0.9,2.3h-3.8v9
		c0,1.3,0.5,1.8,1.5,1.8s2-0.6,2.6-1l0.8,1.9C257.6,143.9,255.9,144.5,254.5,144.5L254.5,144.5z"/>
	<path class="st1" d="M270.2,144.2l-0.6-1.4c-0.9,0.9-2.4,1.8-4.6,1.8c-2.6,0-4.8-1.8-4.8-4.7s2.2-4.9,6.2-5l3-0.1v-0.6
		c0-2.4-1.4-3.2-3.2-3.2s-3.1,0.7-4,1.3l-1-1.9c1.9-1.4,3.6-1.7,5.6-1.7c3.2,0,5.5,1.4,5.5,5.3v5.1c0,3.6,0.1,4.7,0.3,5.2H270.2
		L270.2,144.2z M269.4,136.9l-2.7,0.1c-2.5,0.1-3.6,0.9-3.6,2.5c0,1.4,0.9,2.6,2.8,2.6s2.9-0.8,3.5-1.5V136.9L269.4,136.9z
		 M267.3,127h-2.4l2.8-4.7h3.6L267.3,127z"/>
	<path class="st1" d="M283.3,131.7c-0.4-0.2-1-0.4-1.6-0.4c-0.9,0-2.2,0.7-3.2,1.7v11.1h-2.9v-15.2h2.4l0.4,1.7
		c1.9-1.7,3.1-2.1,4.3-2.1c0.7,0,1.4,0.2,1.7,0.5L283.3,131.7L283.3,131.7z"/>
	<path class="st1" d="M290.3,124.1c0,1-0.9,1.9-1.9,1.9s-1.9-0.8-1.9-1.9c0-1,0.8-1.9,1.9-1.9S290.3,123.1,290.3,124.1z M287,144.2
		v-15.2h2.8v15.2H287z"/>
	<path class="st1" d="M304.5,130.6c1.4,1.4,2.1,3.5,2.1,5.9s-0.8,4.5-2.2,6c-1.3,1.3-3,2-5.1,2s-3.7-0.6-4.9-1.9
		c-1.4-1.4-2.2-3.6-2.2-6.1s0.8-4.6,2.2-6c1.3-1.3,3-2,5-2S303.3,129.3,304.5,130.6L304.5,130.6z M295.2,136.5
		c0,3.4,1.6,5.6,4.3,5.6s4.2-2.3,4.2-5.6s-1.5-5.6-4.3-5.6S295.2,133.1,295.2,136.5z"/>
</g>
</svg>
